<svg xmlns="http://www.w3.org/2000/svg" width="648" height="485" viewBox="0 0 648 485" fill="none"><path d="M599.314 405.213C597.639 405.213 595.965 404.794 594.431 403.958L578.109 394.472C577.132 393.914 576.574 392.938 576.574 391.822C576.574 390.706 577.132 389.73 578.109 389.172L594.431 379.687C597.36 378.013 601.127 378.013 604.196 379.687L620.518 389.172C621.495 389.73 622.053 390.706 622.053 391.822C622.053 392.938 621.495 393.914 620.518 394.472L604.196 403.958C602.662 404.794 600.988 405.213 599.314 405.213ZM599.314 381.081C598.058 381.081 596.802 381.36 595.686 382.058L579.364 391.543C579.225 391.683 579.085 391.822 579.085 391.962C579.085 392.101 579.085 392.24 579.364 392.38L595.686 401.726C597.918 402.981 600.569 402.981 602.801 401.726L619.123 392.24C619.263 392.101 619.402 391.961 619.402 391.822C619.402 391.683 619.402 391.543 619.123 391.404L602.801 381.918C601.825 381.36 600.569 381.081 599.314 381.081Z" fill="url(#paint0_linear)"></path><path d="M552.439 351.649C549.649 351.649 546.998 350.952 544.487 349.557L516.307 333.237C514.912 332.4 514.215 331.145 514.215 329.471C514.215 327.936 515.052 326.542 516.307 325.705L544.487 309.385C549.37 306.595 555.369 306.595 560.251 309.385L588.431 325.705C589.826 326.542 590.524 327.797 590.524 329.471C590.524 331.005 589.687 332.4 588.431 333.237L560.251 349.557C557.88 350.952 555.229 351.649 552.439 351.649ZM545.882 347.186C549.928 349.557 554.95 349.557 559.135 347.186L587.315 330.866C588.013 330.447 588.152 329.75 588.152 329.471C588.152 329.192 588.013 328.494 587.315 328.076L559.135 311.756C555.09 309.385 550.068 309.385 545.882 311.756L517.702 328.076C517.005 328.494 516.865 329.192 516.865 329.471C516.865 329.75 517.005 330.447 517.702 330.866L545.882 347.186Z" fill="url(#paint1_linear)"></path><path d="M48.5477 377.176C45.7576 377.176 43.107 376.478 40.5959 375.083L12.5555 358.763C11.1604 357.926 10.4629 356.671 10.4629 354.997C10.4629 353.463 11.2999 352.068 12.5555 351.231L40.7354 334.911C45.6181 332.121 51.6168 332.121 56.4995 334.911L84.6795 351.231C86.0745 352.068 86.772 353.323 86.772 354.997C86.772 356.531 85.935 357.926 84.6795 358.763L56.4995 375.083C53.9884 376.478 51.3378 377.176 48.5477 377.176ZM48.5477 335.608C46.3156 335.608 43.9441 336.166 41.991 337.421L13.811 353.602C13.1135 354.021 12.974 354.718 12.974 354.997C12.974 355.276 13.1135 355.973 13.811 356.392L41.991 372.712C46.0366 375.083 51.0588 375.083 55.2439 372.712L83.4239 356.392C84.1215 355.973 84.261 355.276 84.261 354.997C84.261 354.718 84.1215 354.021 83.4239 353.602L55.2439 337.282C53.1514 336.166 50.7798 335.608 48.5477 335.608Z" fill="url(#paint2_linear)"></path><path opacity="0.6" d="M333.975 448.175L132.391 331.842C129.461 330.168 129.88 327.239 133.228 325.286L262.549 250.66C265.897 248.707 271.059 248.428 273.988 250.242L475.433 366.575C478.363 368.248 477.944 371.178 474.596 373.131L345.275 447.757C341.927 449.57 336.905 449.849 333.975 448.175Z" fill="#020230"></path><path d="M338.579 469.098C336.207 469.098 333.975 468.54 332.301 467.564L102.258 334.911C100.444 333.795 99.3281 332.26 99.3281 330.447C99.3281 328.494 100.723 326.402 103.234 325.007L260.038 233.224C264.362 230.713 270.64 230.434 274.407 232.666L504.311 365.459C506.124 366.574 507.24 368.109 507.24 369.922C507.24 371.875 505.845 373.967 503.334 375.362L346.531 467.145C344.299 468.401 341.369 469.098 338.579 469.098ZM267.99 233.921C265.618 233.921 263.107 234.479 261.154 235.595L104.49 327.378C102.816 328.355 101.979 329.471 101.979 330.587C101.979 331.563 102.816 332.26 103.653 332.679L333.417 465.472C336.347 467.145 341.788 466.866 345.136 464.914L501.939 373.13C503.613 372.154 504.45 371.038 504.45 369.922C504.45 368.946 503.613 368.248 502.776 367.83L272.872 235.037C271.756 234.2 269.943 233.921 267.99 233.921Z" fill="url(#paint3_linear)"></path><path d="M529.003 171.431L328.395 55.5162C327 54.6793 325.605 54.5398 324.349 54.9582L320.582 56.2136L321.838 56.4926C321.28 57.0506 320.861 57.8875 320.582 58.7244L275.243 206.024C274.127 209.65 275.801 214.114 278.871 215.927L479.618 331.981C480.037 332.26 480.595 332.4 481.153 332.539L480.595 333.655L484.082 332.4C485.477 331.842 486.733 330.587 487.291 328.634L532.769 181.334C533.885 177.708 532.211 173.244 529.003 171.431Z" fill="url(#paint4_radial)"></path><path d="M472.364 337.422L274.267 223.041C271.337 221.368 266.315 221.507 262.828 223.46L134.762 297.389L130.438 295.715L131.693 301.713C131.833 302.55 132.53 303.526 133.646 304.084L333.696 419.58C336.626 421.254 341.648 421.114 345.135 419.162L473.48 345.093C475.014 344.117 475.991 343.001 476.27 341.885L477.525 336.027L472.364 337.422Z" fill="url(#paint5_radial)"></path><path d="M333.975 414.558L132.391 298.225C129.461 296.551 129.88 293.622 133.228 291.669L262.549 217.043C265.897 215.09 271.059 214.811 273.988 216.625L475.433 332.958C478.363 334.632 477.944 337.561 474.596 339.514L345.275 414.14C341.927 415.953 336.905 416.232 333.975 414.558Z" fill="url(#paint6_radial)"></path><path d="M474.735 337.84L345.414 412.466C342.066 414.419 336.904 414.698 333.975 412.885L132.39 296.691C131.414 296.133 130.856 295.436 130.577 294.599C130.158 295.994 130.716 297.249 132.39 298.225L333.835 414.558C336.765 416.232 341.926 416.093 345.275 414.14L474.596 339.514C476.828 338.258 477.665 336.445 477.246 335.05C477.107 335.887 476.13 337.003 474.735 337.84Z" fill="white"></path><g opacity="0.4"><path opacity="0.4" d="M228.509 279.394L221.674 275.489C221.116 275.21 221.255 274.652 221.813 274.233L229.904 269.63C230.602 269.212 231.439 269.212 231.997 269.491L238.833 273.396C239.391 273.675 239.251 274.233 238.693 274.652L230.602 279.255C230.044 279.534 229.067 279.673 228.509 279.394Z" fill="#06033E"></path><path opacity="0.4" d="M238.972 285.393L232.136 281.487C231.578 281.208 231.718 280.65 232.276 280.231L240.367 275.628C241.065 275.21 241.902 275.21 242.46 275.489L249.296 279.395C249.854 279.674 249.714 280.231 249.156 280.65L241.065 285.253C240.507 285.672 239.53 285.672 238.972 285.393Z" fill="#06033E"></path><path opacity="0.4" d="M249.574 291.391L242.738 287.485C242.18 287.206 242.32 286.648 242.878 286.23L250.969 281.626C251.666 281.208 252.503 281.208 253.061 281.487L259.897 285.393C260.455 285.672 260.316 286.23 259.758 286.648L251.666 291.251C251.108 291.67 250.132 291.809 249.574 291.391Z" fill="#06033E"></path><path opacity="0.4" d="M264.084 286.508L257.248 282.603C256.69 282.324 256.829 281.766 257.387 281.347L264.084 277.442C264.781 277.023 265.618 277.023 266.176 277.302L273.012 281.208C273.57 281.487 273.43 282.045 272.872 282.463L266.176 286.369C265.618 286.787 264.642 286.787 264.084 286.508Z" fill="#06033E"></path><path opacity="0.4" d="M274.546 292.506L267.711 288.601C267.153 288.322 267.292 287.764 267.85 287.345L274.546 283.44C275.244 283.021 276.081 283.021 276.639 283.3L283.475 287.206C284.033 287.485 283.893 288.043 283.335 288.461L276.639 292.367C276.081 292.785 275.104 292.785 274.546 292.506Z" fill="#06033E"></path><path opacity="0.4" d="M285.148 298.644L278.312 294.738C277.754 294.459 277.894 293.901 278.452 293.483L285.148 289.577C285.846 289.159 286.683 289.159 287.241 289.438L294.076 293.343C294.634 293.622 294.495 294.18 293.937 294.599L287.241 298.504C286.543 298.783 285.567 298.923 285.148 298.644Z" fill="#06033E"></path><path opacity="0.4" d="M295.611 304.642L288.775 300.736C288.217 300.457 288.357 299.899 288.915 299.481L295.611 295.575C296.308 295.157 297.145 295.157 297.703 295.436L304.539 299.341C305.097 299.62 304.958 300.178 304.4 300.597L297.703 304.502C297.145 304.921 296.169 304.921 295.611 304.642Z" fill="#06033E"></path><path opacity="0.4" d="M306.074 310.64L299.238 306.734C298.68 306.455 298.82 305.897 299.378 305.479L306.074 301.573C306.771 301.155 307.608 301.155 308.166 301.434L315.002 305.339C315.56 305.618 315.421 306.176 314.863 306.595L308.166 310.5C307.608 310.919 306.632 311.058 306.074 310.64Z" fill="#06033E"></path><path opacity="0.4" d="M316.537 316.777L309.701 312.872C309.143 312.593 309.282 312.035 309.84 311.616L316.537 307.711C317.234 307.292 318.071 307.292 318.629 307.571L325.465 311.477C326.023 311.756 325.884 312.314 325.326 312.732L318.629 316.638C318.071 317.056 317.095 317.056 316.537 316.777Z" fill="#06033E"></path><path opacity="0.4" d="M327.14 322.775L320.304 318.87C319.746 318.591 319.886 318.033 320.444 317.614L327.14 313.709C327.838 313.29 328.675 313.29 329.233 313.569L336.068 317.475C336.626 317.754 336.487 318.312 335.929 318.73L329.233 322.636C328.535 323.054 327.698 323.194 327.14 322.775Z" fill="#06033E"></path><path opacity="0.4" d="M337.603 328.913L330.767 325.007C330.209 324.728 330.349 324.17 330.907 323.752L337.603 319.846C338.301 319.428 339.138 319.428 339.696 319.707L346.531 323.612C347.089 323.891 346.95 324.449 346.392 324.868L339.696 328.773C339.138 329.192 338.161 329.192 337.603 328.913Z" fill="#06033E"></path><path opacity="0.4" d="M348.066 334.911L341.23 331.005C340.672 330.726 340.812 330.168 341.37 329.75L348.066 325.844C348.763 325.425 349.601 325.425 350.159 325.704L356.994 329.61C357.552 329.889 357.413 330.447 356.855 330.866L350.159 334.771C349.601 335.19 348.624 335.329 348.066 334.911Z" fill="#06033E"></path><path opacity="0.4" d="M358.668 341.048L351.832 337.143C351.274 336.864 351.413 336.306 351.971 335.887L358.668 331.982C359.365 331.563 360.202 331.563 360.76 331.842L367.596 335.748C368.154 336.027 368.014 336.585 367.456 337.003L360.76 340.909C360.063 341.327 359.226 341.327 358.668 341.048Z" fill="#06033E"></path><path opacity="0.4" d="M279.568 283.579L272.732 279.673C272.174 279.394 272.314 278.837 272.872 278.418L279.568 274.512C280.265 274.094 281.102 274.094 281.66 274.373L288.496 278.279C289.054 278.558 288.915 279.115 288.357 279.534L281.66 283.44C281.102 283.858 280.126 283.858 279.568 283.579Z" fill="#06033E"></path><path opacity="0.4" d="M268.826 277.442L261.99 273.536C261.432 273.257 261.571 272.699 262.129 272.281L268.826 268.375C269.523 267.956 270.36 267.956 270.918 268.235L277.754 272.141C278.312 272.42 278.173 272.978 277.615 273.397L270.918 277.302C270.36 277.721 269.384 277.721 268.826 277.442Z" fill="#06033E"></path><path opacity="0.4" d="M258.224 271.304L243.576 262.796C243.018 262.517 243.157 261.959 243.715 261.54L250.412 257.634C251.109 257.216 251.946 257.216 252.504 257.495L267.152 266.004C267.71 266.283 267.571 266.841 267.013 267.259L260.317 271.165C259.758 271.583 258.782 271.583 258.224 271.304Z" fill="#06033E"></path><path opacity="0.4" d="M265.617 263.772L253.76 256.937C253.202 256.658 253.341 256.1 253.899 255.681L260.595 251.776C261.293 251.357 262.13 251.357 262.688 251.636L274.546 258.471C275.104 258.75 274.964 259.308 274.406 259.727L267.849 263.632C267.152 264.051 266.175 264.051 265.617 263.772Z" fill="#06033E"></path><path opacity="0.4" d="M290.031 289.577L283.195 285.671C282.637 285.393 282.777 284.835 283.335 284.416L290.031 280.51C290.728 280.092 291.565 280.092 292.123 280.371L298.959 284.277C299.517 284.556 299.378 285.114 298.82 285.532L292.123 289.438C291.565 289.856 290.589 289.996 290.031 289.577Z" fill="#06033E"></path><path opacity="0.4" d="M300.494 295.715L293.658 291.809C293.1 291.53 293.239 290.972 293.797 290.554L300.494 286.648C301.191 286.229 302.028 286.229 302.586 286.508L309.422 290.414C309.98 290.693 309.841 291.251 309.283 291.669L302.586 295.575C302.028 295.994 301.052 295.994 300.494 295.715Z" fill="#06033E"></path><path opacity="0.4" d="M311.097 301.713L304.261 297.807C303.703 297.528 303.843 296.97 304.401 296.552L311.097 292.646C311.795 292.227 312.632 292.227 313.19 292.506L320.025 296.412C320.584 296.691 320.444 297.249 319.886 297.667L313.19 301.573C312.632 301.992 311.655 302.131 311.097 301.713Z" fill="#06033E"></path><path opacity="0.4" d="M321.558 307.85L314.722 303.944C314.164 303.665 314.304 303.108 314.862 302.689L321.558 298.783C322.256 298.365 323.093 298.365 323.651 298.644L330.486 302.55C331.045 302.829 330.905 303.386 330.347 303.805L323.651 307.711C323.093 308.129 322.116 308.129 321.558 307.85Z" fill="#06033E"></path><path opacity="0.4" d="M332.021 313.848L325.185 309.942C324.627 309.664 324.767 309.106 325.325 308.687L332.021 304.781C332.719 304.363 333.556 304.363 334.114 304.642L340.949 308.548C341.507 308.827 341.368 309.385 340.81 309.803L334.114 313.709C333.556 314.127 332.579 314.267 332.021 313.848Z" fill="#06033E"></path><path opacity="0.4" d="M342.625 319.986L335.789 316.08C335.231 315.801 335.37 315.243 335.928 314.825L342.625 310.919C343.322 310.5 344.159 310.5 344.717 310.779L351.553 314.685C352.111 314.964 351.971 315.522 351.413 315.94L344.717 319.846C344.02 320.265 343.183 320.265 342.625 319.986Z" fill="#06033E"></path><path opacity="0.4" d="M353.087 325.984L346.252 322.078C345.694 321.799 345.833 321.241 346.391 320.823L353.087 316.917C353.785 316.498 354.622 316.498 355.18 316.777L362.016 320.683C362.574 320.962 362.434 321.52 361.876 321.938L355.18 325.844C354.622 326.263 353.645 326.402 353.087 325.984Z" fill="#06033E"></path><path opacity="0.4" d="M363.55 332.121L356.715 328.215C356.157 327.936 356.296 327.379 356.854 326.96L363.55 323.054C364.248 322.636 365.085 322.636 365.643 322.915L372.479 326.821C373.037 327.1 372.897 327.657 372.339 328.076L365.643 331.982C365.085 332.4 364.108 332.4 363.55 332.121Z" fill="#06033E"></path><path opacity="0.4" d="M374.152 338.119L367.316 334.213C366.758 333.934 366.898 333.376 367.456 332.958L374.152 329.052C374.849 328.634 375.687 328.634 376.245 328.913L383.08 332.818C383.638 333.097 383.499 333.655 382.941 334.074L376.245 337.979C375.547 338.398 374.57 338.537 374.152 338.119Z" fill="#06033E"></path><path opacity="0.4" d="M392.707 348.999L377.92 340.49C377.362 340.211 377.501 339.653 378.059 339.235L384.755 335.329C385.453 334.911 386.29 334.911 386.848 335.19L401.636 343.699C402.194 343.978 402.054 344.535 401.496 344.954L394.8 348.86C394.242 349.278 393.265 349.278 392.707 348.999Z" fill="#06033E"></path><path opacity="0.4" d="M413.213 337.143L400.658 329.889C400.1 329.61 400.239 329.052 400.797 328.634L407.494 324.728C408.191 324.31 409.028 324.31 409.586 324.589L422.142 331.842C422.7 332.121 422.56 332.679 422.002 333.097L415.306 337.003C414.748 337.422 413.771 337.422 413.213 337.143Z" fill="#06033E"></path><path opacity="0.4" d="M308.445 288.461L301.609 284.556C301.051 284.277 301.191 283.719 301.749 283.3L308.445 279.394C309.142 278.976 309.979 278.976 310.537 279.255L317.373 283.161C317.931 283.44 317.792 283.998 317.234 284.416L310.537 288.322C309.979 288.74 309.003 288.74 308.445 288.461Z" fill="#06033E"></path><path opacity="0.4" d="M297.705 282.184L290.869 278.279C290.311 278 290.45 277.442 291.008 277.023L297.705 273.118C298.402 272.699 299.239 272.699 299.797 272.978L306.633 276.884C307.191 277.163 307.051 277.721 306.493 278.139L299.797 282.045C299.239 282.463 298.263 282.603 297.705 282.184Z" fill="#06033E"></path><path opacity="0.4" d="M286.962 276.047L280.127 272.141C279.569 271.862 279.708 271.304 280.266 270.886L286.962 266.98C287.66 266.562 288.497 266.562 289.055 266.841L295.891 270.746C296.449 271.025 296.309 271.583 295.751 272.002L289.055 275.907C288.358 276.326 287.52 276.326 286.962 276.047Z" fill="#06033E"></path><path opacity="0.4" d="M276.22 269.77L269.385 265.864C268.827 265.585 268.966 265.027 269.524 264.609L276.22 260.703C276.918 260.285 277.755 260.285 278.313 260.564L285.149 264.469C285.707 264.748 285.567 265.306 285.009 265.725L278.313 269.63C277.615 270.049 276.639 270.188 276.22 269.77Z" fill="#06033E"></path><path opacity="0.4" d="M318.908 294.459L312.072 290.554C311.514 290.275 311.654 289.717 312.212 289.298L318.908 285.393C319.605 284.974 320.442 284.974 321 285.253L327.836 289.159C328.394 289.438 328.255 289.996 327.697 290.414L321 294.32C320.442 294.738 319.466 294.878 318.908 294.459Z" fill="#06033E"></path><path opacity="0.4" d="M329.511 300.597L322.676 296.691C322.118 296.412 322.257 295.854 322.815 295.436L329.511 291.53C330.209 291.112 331.046 291.111 331.604 291.39L338.44 295.296C338.998 295.575 338.858 296.133 338.3 296.552L331.604 300.457C330.906 300.876 330.069 300.876 329.511 300.597Z" fill="#06033E"></path><path opacity="0.4" d="M339.974 306.595L333.138 302.689C332.58 302.41 332.72 301.852 333.278 301.434L339.974 297.528C340.672 297.11 341.509 297.11 342.067 297.389L348.902 301.294C349.461 301.573 349.321 302.131 348.763 302.55L342.067 306.455C341.509 306.874 340.532 307.013 339.974 306.595Z" fill="#06033E"></path><path opacity="0.4" d="M350.437 312.732L343.601 308.827C343.043 308.548 343.183 307.99 343.741 307.571L350.437 303.665C351.135 303.247 351.972 303.247 352.53 303.526L359.365 307.432C359.923 307.711 359.784 308.269 359.226 308.687L352.53 312.593C351.972 313.011 350.995 313.011 350.437 312.732Z" fill="#06033E"></path><path opacity="0.4" d="M361.039 318.73L354.203 314.825C353.645 314.546 353.784 313.988 354.342 313.569L361.039 309.664C361.736 309.245 362.573 309.245 363.131 309.524L369.967 313.43C370.525 313.709 370.385 314.267 369.827 314.685L363.131 318.591C362.434 319.009 361.457 319.149 361.039 318.73Z" fill="#06033E"></path><path opacity="0.4" d="M371.502 324.868L364.666 320.962C364.108 320.683 364.247 320.125 364.805 319.707L371.502 315.801C372.199 315.382 373.036 315.382 373.594 315.661L380.43 319.567C380.988 319.846 380.848 320.404 380.29 320.823L373.594 324.728C373.036 325.147 372.06 325.147 371.502 324.868Z" fill="#06033E"></path><path opacity="0.4" d="M381.964 330.866L375.129 326.96C374.571 326.681 374.71 326.123 375.268 325.705L381.964 321.799C382.662 321.381 383.499 321.381 384.057 321.66L390.893 325.565C391.451 325.844 391.311 326.402 390.753 326.821L384.057 330.726C383.499 331.145 382.522 331.284 381.964 330.866Z" fill="#06033E"></path><path opacity="0.4" d="M392.427 337.003L385.592 333.098C385.034 332.819 385.173 332.261 385.731 331.842L392.427 327.936C393.125 327.518 393.962 327.518 394.52 327.797L401.356 331.703C401.914 331.982 401.774 332.54 401.216 332.958L394.52 336.864C393.962 337.282 392.985 337.282 392.427 337.003Z" fill="#06033E"></path><path opacity="0.4" d="M403.031 343.001L396.195 339.096C395.637 338.817 395.777 338.259 396.335 337.84L403.031 333.934C403.728 333.516 404.565 333.516 405.123 333.795L411.959 337.701C412.517 337.98 412.378 338.538 411.82 338.956L405.123 342.862C404.565 343.28 403.589 343.28 403.031 343.001Z" fill="#06033E"></path><path opacity="0.4" d="M302.865 273.396L296.029 269.491C295.471 269.212 295.611 268.654 296.169 268.235L302.865 264.33C303.562 263.911 304.399 263.911 304.957 264.19L311.793 268.096C312.351 268.375 312.212 268.933 311.654 269.351L304.957 273.257C304.399 273.675 303.423 273.815 302.865 273.396Z" fill="#06033E"></path><path opacity="0.4" d="M292.402 267.398L285.566 263.493C285.008 263.214 285.148 262.656 285.706 262.237L292.402 258.332C293.099 257.913 293.936 257.913 294.495 258.192L301.33 262.098C301.888 262.377 301.749 262.935 301.191 263.353L294.495 267.259C293.936 267.677 292.96 267.677 292.402 267.398Z" fill="#06033E"></path><path opacity="0.4" d="M282.08 261.401L275.244 257.495C274.686 257.216 274.825 256.658 275.383 256.24L282.08 252.334C282.777 251.915 283.614 251.915 284.172 252.194L291.008 256.1C291.566 256.379 291.426 256.937 290.868 257.355L284.172 261.261C283.475 261.68 282.498 261.68 282.08 261.401Z" fill="#06033E"></path><path opacity="0.4" d="M271.617 255.403L264.781 251.497C264.223 251.218 264.362 250.66 264.921 250.242L271.617 246.336C272.314 245.917 273.151 245.917 273.709 246.196L280.545 250.102C281.103 250.381 280.964 250.939 280.406 251.357L273.709 255.263C273.012 255.682 272.175 255.682 271.617 255.403Z" fill="#06033E"></path><path opacity="0.4" d="M282.359 249.126L275.523 245.22C274.965 244.941 275.105 244.383 275.663 243.965L277.895 242.709C278.592 242.291 279.429 242.291 279.987 242.57L286.823 246.475C287.381 246.754 287.242 247.312 286.684 247.731L284.451 248.986C283.754 249.405 282.917 249.405 282.359 249.126Z" fill="#06033E"></path><path opacity="0.4" d="M295.89 257.077L289.054 253.171C288.496 252.892 288.636 252.334 289.194 251.915L291.426 250.66C292.124 250.242 292.961 250.242 293.519 250.521L300.354 254.426C300.912 254.705 300.773 255.263 300.215 255.682L297.983 256.937C297.425 257.356 296.448 257.356 295.89 257.077Z" fill="#06033E"></path><path opacity="0.4" d="M306.353 263.074L299.517 259.169C298.959 258.89 299.099 258.332 299.657 257.913L301.889 256.658C302.586 256.239 303.423 256.239 303.981 256.518L310.817 260.424C311.375 260.703 311.236 261.261 310.678 261.679L308.446 262.935C307.888 263.353 306.911 263.353 306.353 263.074Z" fill="#06033E"></path><path opacity="0.4" d="M316.816 269.072L309.98 265.167C309.422 264.888 309.562 264.33 310.12 263.911L312.352 262.656C313.049 262.237 313.886 262.237 314.444 262.516L321.28 266.422C321.838 266.701 321.699 267.259 321.141 267.678L318.908 268.933C318.211 269.351 317.374 269.351 316.816 269.072Z" fill="#06033E"></path><path opacity="0.4" d="M327.14 275.07L320.304 271.165C319.746 270.886 319.886 270.328 320.444 269.909L322.676 268.654C323.374 268.236 324.211 268.236 324.769 268.514L331.604 272.42C332.162 272.699 332.023 273.257 331.465 273.676L329.233 274.931C328.675 275.349 327.698 275.349 327.14 275.07Z" fill="#06033E"></path><path opacity="0.4" d="M385.312 308.547L378.476 304.642C377.918 304.363 378.058 303.805 378.616 303.386L380.848 302.131C381.545 301.713 382.382 301.713 382.941 301.992L389.776 305.897C390.334 306.176 390.195 306.734 389.637 307.153L387.405 308.408C386.847 308.826 385.87 308.966 385.312 308.547Z" fill="#06033E"></path><path opacity="0.4" d="M395.636 314.546L388.801 310.64C388.243 310.361 388.382 309.803 388.94 309.384L391.172 308.129C391.87 307.711 392.707 307.711 393.265 307.99L400.1 311.895C400.658 312.174 400.519 312.732 399.961 313.151L397.729 314.406C397.171 314.824 396.194 314.964 395.636 314.546Z" fill="#06033E"></path><path opacity="0.4" d="M406.099 320.683L399.263 316.777C398.705 316.498 398.845 315.94 399.403 315.522L401.635 314.267C402.333 313.848 403.17 313.848 403.728 314.127L410.563 318.033C411.121 318.312 410.982 318.87 410.424 319.288L408.192 320.544C407.634 320.822 406.657 320.962 406.099 320.683Z" fill="#06033E"></path><path opacity="0.4" d="M416.562 326.681L409.726 322.775C409.168 322.496 409.308 321.938 409.866 321.52L412.098 320.265C412.795 319.846 413.632 319.846 414.19 320.125L421.026 324.031C421.584 324.31 421.445 324.868 420.887 325.286L418.655 326.542C417.957 326.96 417.12 326.96 416.562 326.681Z" fill="#06033E"></path><path opacity="0.4" d="M313.468 279.534L306.633 275.628C306.075 275.349 306.214 274.791 306.772 274.373L313.468 270.467C314.166 270.049 315.003 270.049 315.561 270.328L322.397 274.233C322.955 274.512 322.815 275.07 322.257 275.489L315.561 279.394C314.863 279.813 314.026 279.813 313.468 279.534Z" fill="#06033E"></path><path opacity="0.4" d="M323.931 285.532L317.095 281.626C316.537 281.347 316.677 280.789 317.235 280.371L323.931 276.465C324.629 276.047 325.466 276.047 326.024 276.326L332.86 280.231C333.418 280.51 333.278 281.068 332.72 281.487L326.024 285.393C325.466 285.811 324.489 285.95 323.931 285.532Z" fill="#06033E"></path><path opacity="0.4" d="M334.394 291.669L327.558 287.764C327 287.485 327.14 286.927 327.698 286.508L334.394 282.603C335.092 282.184 335.929 282.184 336.487 282.463L343.322 286.369C343.88 286.648 343.741 287.206 343.183 287.624L336.487 291.53C335.929 291.948 334.952 291.948 334.394 291.669Z" fill="#06033E"></path><path opacity="0.4" d="M344.996 297.667L338.16 293.762C337.602 293.483 337.741 292.925 338.299 292.506L344.996 288.601C345.693 288.182 346.53 288.182 347.088 288.461L353.924 292.367C354.482 292.646 354.342 293.204 353.784 293.622L347.088 297.528C346.391 297.946 345.554 298.086 344.996 297.667Z" fill="#06033E"></path><path opacity="0.4" d="M355.459 303.805L348.623 299.899C348.065 299.62 348.204 299.062 348.762 298.644L355.459 294.738C356.156 294.32 356.993 294.32 357.551 294.599L364.387 298.504C364.945 298.783 364.805 299.341 364.247 299.76L357.551 303.665C356.993 304.084 356.017 304.084 355.459 303.805Z" fill="#06033E"></path><path opacity="0.4" d="M365.921 309.803L359.086 305.897C358.528 305.618 358.667 305.06 359.225 304.642L365.921 300.736C366.619 300.318 367.456 300.318 368.014 300.597L374.85 304.502C375.408 304.781 375.268 305.339 374.71 305.758L368.014 309.663C367.456 310.082 366.479 310.221 365.921 309.803Z" fill="#06033E"></path><path opacity="0.4" d="M376.525 315.94L369.689 312.035C369.131 311.756 369.271 311.198 369.829 310.779L376.525 306.874C377.222 306.455 378.059 306.455 378.618 306.734L385.453 310.64C386.011 310.919 385.872 311.477 385.314 311.895L378.618 315.801C377.92 316.219 376.943 316.219 376.525 315.94Z" fill="#06033E"></path><path opacity="0.4" d="M386.988 321.939L380.152 318.033C379.594 317.754 379.734 317.196 380.292 316.777L386.988 312.872C387.685 312.453 388.522 312.453 389.08 312.732L395.916 316.638C396.474 316.917 396.335 317.475 395.777 317.893L389.08 321.799C388.522 322.217 387.546 322.217 386.988 321.939Z" fill="#06033E"></path><path opacity="0.4" d="M397.449 328.076L390.613 324.17C390.055 323.891 390.195 323.333 390.753 322.915L397.449 319.009C398.146 318.591 398.983 318.591 399.541 318.87L406.377 322.775C406.935 323.054 406.796 323.612 406.238 324.031L399.541 327.936C398.983 328.355 398.007 328.355 397.449 328.076Z" fill="#06033E"></path><path opacity="0.4" d="M253.34 280.231L233.252 268.654C232.694 268.375 232.833 267.817 233.391 267.399L240.087 263.493C240.785 263.074 241.622 263.074 242.18 263.353L262.269 274.931C262.827 275.21 262.687 275.768 262.129 276.186L255.433 280.092C254.875 280.51 253.898 280.65 253.34 280.231Z" fill="#06033E"></path><path opacity="0.4" d="M382.383 354.718L362.295 343.14C361.737 342.862 361.876 342.304 362.434 341.885L369.13 337.979C369.828 337.561 370.665 337.561 371.223 337.84L391.312 349.417C391.87 349.696 391.73 350.254 391.172 350.673L384.476 354.579C383.918 354.997 382.941 355.136 382.383 354.718Z" fill="#06033E"></path><path opacity="0.4" d="M340.392 343.977L333.556 340.072C332.998 339.793 333.138 339.235 333.696 338.816L341.787 334.213C342.485 333.795 343.322 333.795 343.88 334.074L350.715 337.979C351.274 338.258 351.134 338.816 350.576 339.235L342.485 343.838C341.927 344.256 340.95 344.256 340.392 343.977Z" fill="#06033E"></path><path opacity="0.4" d="M264.082 299.899L253.201 293.622C252.643 293.343 252.782 292.785 253.34 292.367L261.432 287.764C262.129 287.345 262.966 287.345 263.524 287.624L274.406 293.901C274.964 294.18 274.824 294.738 274.266 295.157L266.175 299.76C265.617 300.178 264.64 300.178 264.082 299.899Z" fill="#06033E"></path><path opacity="0.4" d="M330.348 338.119L319.467 331.842C318.909 331.563 319.048 331.005 319.606 330.587L327.697 325.984C328.395 325.565 329.232 325.565 329.79 325.844L340.671 332.121C341.229 332.4 341.09 332.958 340.532 333.376L332.441 337.98C331.743 338.398 330.766 338.398 330.348 338.119Z" fill="#06033E"></path><path opacity="0.4" d="M279.289 308.687L268.408 302.41C267.85 302.131 267.989 301.573 268.547 301.155L276.639 296.551C277.336 296.133 278.173 296.133 278.731 296.412L289.613 302.689C290.171 302.968 290.031 303.526 289.473 303.944L281.382 308.547C280.824 308.966 279.847 308.966 279.289 308.687Z" fill="#06033E"></path><path opacity="0.4" d="M278.732 296.412L326.024 323.752C326.582 324.031 326.582 324.589 326.024 325.007L317.793 329.75C317.235 330.029 316.258 330.029 315.7 329.75L268.408 302.41L278.732 296.412Z" fill="#06033E"></path><path opacity="0.4" d="M369.828 354.857L377.361 359.182C377.78 359.461 377.78 359.879 377.222 360.158L373.874 362.111C373.316 362.39 372.618 362.39 372.06 362.25L364.527 357.926C364.108 357.647 364.108 357.229 364.666 356.95L368.014 354.997C368.572 354.718 369.27 354.718 369.828 354.857Z" fill="#06033E"></path><path opacity="0.4" d="M359.224 348.86L366.758 353.184C367.176 353.463 367.176 353.881 366.618 354.16L363.27 356.113C362.712 356.392 362.015 356.392 361.457 356.253L353.923 351.928C353.505 351.649 353.505 351.231 354.063 350.952L357.411 348.999C357.969 348.581 358.666 348.581 359.224 348.86Z" fill="#06033E"></path><path opacity="0.4" d="M348.623 342.722L356.156 347.046C356.575 347.325 356.575 347.744 356.017 348.023L352.669 349.975C352.111 350.254 351.413 350.254 350.855 350.115L343.322 345.791C342.903 345.512 342.903 345.093 343.461 344.814L346.809 342.862C347.507 342.443 348.204 342.443 348.623 342.722Z" fill="#06033E"></path><path opacity="0.4" d="M364.945 345.512L372.479 349.836C372.897 350.115 372.897 350.533 372.339 350.812L368.991 352.765C368.433 353.044 367.735 353.044 367.177 352.905L359.644 348.581C359.226 348.302 359.226 347.883 359.784 347.604L363.132 345.651C363.69 345.233 364.527 345.233 364.945 345.512Z" fill="#06033E"></path></g><g opacity="0.4"><path opacity="0.4" d="M228.509 279.394L221.674 275.489C221.116 275.21 221.255 274.652 221.813 274.233L229.904 269.63C230.602 269.212 231.439 269.212 231.997 269.491L238.833 273.396C239.391 273.675 239.251 274.233 238.693 274.652L230.602 279.255C230.044 279.534 229.067 279.673 228.509 279.394Z" fill="#06033E"></path><path opacity="0.4" d="M238.972 285.393L232.136 281.487C231.578 281.208 231.718 280.65 232.276 280.231L240.367 275.628C241.065 275.21 241.902 275.21 242.46 275.489L249.296 279.395C249.854 279.674 249.714 280.231 249.156 280.65L241.065 285.253C240.507 285.672 239.53 285.672 238.972 285.393Z" fill="#06033E"></path><path opacity="0.4" d="M249.574 291.391L242.738 287.485C242.18 287.206 242.32 286.648 242.878 286.23L250.969 281.626C251.666 281.208 252.503 281.208 253.061 281.487L259.897 285.393C260.455 285.672 260.316 286.23 259.758 286.648L251.666 291.251C251.108 291.67 250.132 291.809 249.574 291.391Z" fill="#06033E"></path><path opacity="0.4" d="M264.084 286.508L257.248 282.603C256.69 282.324 256.829 281.766 257.387 281.347L264.084 277.442C264.781 277.023 265.618 277.023 266.176 277.302L273.012 281.208C273.57 281.487 273.43 282.045 272.872 282.463L266.176 286.369C265.618 286.787 264.642 286.787 264.084 286.508Z" fill="#06033E"></path><path opacity="0.4" d="M274.546 292.506L267.711 288.601C267.153 288.322 267.292 287.764 267.85 287.345L274.546 283.44C275.244 283.021 276.081 283.021 276.639 283.3L283.475 287.206C284.033 287.485 283.893 288.043 283.335 288.461L276.639 292.367C276.081 292.785 275.104 292.785 274.546 292.506Z" fill="#06033E"></path><path opacity="0.4" d="M285.148 298.644L278.312 294.738C277.754 294.459 277.894 293.901 278.452 293.483L285.148 289.577C285.846 289.159 286.683 289.159 287.241 289.438L294.076 293.343C294.634 293.622 294.495 294.18 293.937 294.599L287.241 298.504C286.543 298.783 285.567 298.923 285.148 298.644Z" fill="#06033E"></path><path opacity="0.4" d="M295.611 304.642L288.775 300.736C288.217 300.457 288.357 299.899 288.915 299.481L295.611 295.575C296.308 295.157 297.145 295.157 297.703 295.436L304.539 299.341C305.097 299.62 304.958 300.178 304.4 300.597L297.703 304.502C297.145 304.921 296.169 304.921 295.611 304.642Z" fill="#06033E"></path><path opacity="0.4" d="M306.074 310.64L299.238 306.734C298.68 306.455 298.82 305.897 299.378 305.479L306.074 301.573C306.771 301.155 307.608 301.155 308.166 301.434L315.002 305.339C315.56 305.618 315.421 306.176 314.863 306.595L308.166 310.5C307.608 310.919 306.632 311.058 306.074 310.64Z" fill="#06033E"></path><path opacity="0.4" d="M316.537 316.777L309.701 312.872C309.143 312.593 309.282 312.035 309.84 311.616L316.537 307.711C317.234 307.292 318.071 307.292 318.629 307.571L325.465 311.477C326.023 311.756 325.884 312.314 325.326 312.732L318.629 316.638C318.071 317.056 317.095 317.056 316.537 316.777Z" fill="#06033E"></path><path opacity="0.4" d="M327.14 322.775L320.304 318.87C319.746 318.591 319.886 318.033 320.444 317.614L327.14 313.709C327.838 313.29 328.675 313.29 329.233 313.569L336.068 317.475C336.626 317.754 336.487 318.312 335.929 318.73L329.233 322.636C328.535 323.054 327.698 323.194 327.14 322.775Z" fill="#06033E"></path><path opacity="0.4" d="M337.603 328.913L330.767 325.007C330.209 324.728 330.349 324.17 330.907 323.752L337.603 319.846C338.301 319.428 339.138 319.428 339.696 319.707L346.531 323.612C347.089 323.891 346.95 324.449 346.392 324.868L339.696 328.773C339.138 329.192 338.161 329.192 337.603 328.913Z" fill="#06033E"></path><path opacity="0.4" d="M348.066 334.911L341.23 331.005C340.672 330.726 340.812 330.168 341.37 329.75L348.066 325.844C348.763 325.425 349.601 325.425 350.159 325.704L356.994 329.61C357.552 329.889 357.413 330.447 356.855 330.866L350.159 334.771C349.601 335.19 348.624 335.329 348.066 334.911Z" fill="#06033E"></path><path opacity="0.4" d="M358.668 341.048L351.832 337.143C351.274 336.864 351.413 336.306 351.971 335.887L358.668 331.982C359.365 331.563 360.202 331.563 360.76 331.842L367.596 335.748C368.154 336.027 368.014 336.585 367.456 337.003L360.76 340.909C360.063 341.327 359.226 341.327 358.668 341.048Z" fill="#06033E"></path><path opacity="0.4" d="M279.568 283.579L272.732 279.673C272.174 279.394 272.314 278.837 272.872 278.418L279.568 274.512C280.265 274.094 281.102 274.094 281.66 274.373L288.496 278.279C289.054 278.558 288.915 279.115 288.357 279.534L281.66 283.44C281.102 283.858 280.126 283.858 279.568 283.579Z" fill="#06033E"></path><path opacity="0.4" d="M268.826 277.442L261.99 273.536C261.432 273.257 261.571 272.699 262.129 272.281L268.826 268.375C269.523 267.956 270.36 267.956 270.918 268.235L277.754 272.141C278.312 272.42 278.173 272.978 277.615 273.397L270.918 277.302C270.36 277.721 269.384 277.721 268.826 277.442Z" fill="#06033E"></path><path opacity="0.4" d="M258.224 271.304L243.576 262.796C243.018 262.517 243.157 261.959 243.715 261.54L250.412 257.634C251.109 257.216 251.946 257.216 252.504 257.495L267.152 266.004C267.71 266.283 267.571 266.841 267.013 267.259L260.317 271.165C259.758 271.583 258.782 271.583 258.224 271.304Z" fill="#06033E"></path><path opacity="0.4" d="M265.617 263.772L253.76 256.937C253.202 256.658 253.341 256.1 253.899 255.681L260.595 251.776C261.293 251.357 262.13 251.357 262.688 251.636L274.546 258.471C275.104 258.75 274.964 259.308 274.406 259.727L267.849 263.632C267.152 264.051 266.175 264.051 265.617 263.772Z" fill="#06033E"></path><path opacity="0.4" d="M290.031 289.577L283.195 285.671C282.637 285.393 282.777 284.835 283.335 284.416L290.031 280.51C290.728 280.092 291.565 280.092 292.123 280.371L298.959 284.277C299.517 284.556 299.378 285.114 298.82 285.532L292.123 289.438C291.565 289.856 290.589 289.996 290.031 289.577Z" fill="#06033E"></path><path opacity="0.4" d="M300.494 295.715L293.658 291.809C293.1 291.53 293.239 290.972 293.797 290.554L300.494 286.648C301.191 286.229 302.028 286.229 302.586 286.508L309.422 290.414C309.98 290.693 309.841 291.251 309.283 291.669L302.586 295.575C302.028 295.994 301.052 295.994 300.494 295.715Z" fill="#06033E"></path><path opacity="0.4" d="M311.097 301.713L304.261 297.807C303.703 297.528 303.843 296.97 304.401 296.552L311.097 292.646C311.795 292.227 312.632 292.227 313.19 292.506L320.025 296.412C320.584 296.691 320.444 297.249 319.886 297.667L313.19 301.573C312.632 301.992 311.655 302.131 311.097 301.713Z" fill="#06033E"></path><path opacity="0.4" d="M321.558 307.85L314.722 303.944C314.164 303.665 314.304 303.108 314.862 302.689L321.558 298.783C322.256 298.365 323.093 298.365 323.651 298.644L330.486 302.55C331.045 302.829 330.905 303.386 330.347 303.805L323.651 307.711C323.093 308.129 322.116 308.129 321.558 307.85Z" fill="#06033E"></path><path opacity="0.4" d="M332.021 313.848L325.185 309.942C324.627 309.664 324.767 309.106 325.325 308.687L332.021 304.781C332.719 304.363 333.556 304.363 334.114 304.642L340.949 308.548C341.507 308.827 341.368 309.385 340.81 309.803L334.114 313.709C333.556 314.127 332.579 314.267 332.021 313.848Z" fill="#06033E"></path><path opacity="0.4" d="M342.625 319.986L335.789 316.08C335.231 315.801 335.37 315.243 335.928 314.825L342.625 310.919C343.322 310.5 344.159 310.5 344.717 310.779L351.553 314.685C352.111 314.964 351.971 315.522 351.413 315.94L344.717 319.846C344.02 320.265 343.183 320.265 342.625 319.986Z" fill="#06033E"></path><path opacity="0.4" d="M353.087 325.984L346.252 322.078C345.694 321.799 345.833 321.241 346.391 320.823L353.087 316.917C353.785 316.498 354.622 316.498 355.18 316.777L362.016 320.683C362.574 320.962 362.434 321.52 361.876 321.938L355.18 325.844C354.622 326.263 353.645 326.402 353.087 325.984Z" fill="#06033E"></path><path opacity="0.4" d="M363.55 332.121L356.715 328.215C356.157 327.936 356.296 327.379 356.854 326.96L363.55 323.054C364.248 322.636 365.085 322.636 365.643 322.915L372.479 326.821C373.037 327.1 372.897 327.657 372.339 328.076L365.643 331.982C365.085 332.4 364.108 332.4 363.55 332.121Z" fill="#06033E"></path><path opacity="0.4" d="M374.152 338.119L367.316 334.213C366.758 333.934 366.898 333.376 367.456 332.958L374.152 329.052C374.849 328.634 375.687 328.634 376.245 328.913L383.08 332.818C383.638 333.097 383.499 333.655 382.941 334.074L376.245 337.979C375.547 338.398 374.57 338.537 374.152 338.119Z" fill="#06033E"></path><path opacity="0.4" d="M392.707 348.999L377.92 340.49C377.362 340.211 377.501 339.653 378.059 339.235L384.755 335.329C385.453 334.911 386.29 334.911 386.848 335.19L401.636 343.699C402.194 343.978 402.054 344.535 401.496 344.954L394.8 348.86C394.242 349.278 393.265 349.278 392.707 348.999Z" fill="#06033E"></path><path opacity="0.4" d="M413.213 337.143L400.658 329.889C400.1 329.61 400.239 329.052 400.797 328.634L407.494 324.728C408.191 324.31 409.028 324.31 409.586 324.589L422.142 331.842C422.7 332.121 422.56 332.679 422.002 333.097L415.306 337.003C414.748 337.422 413.771 337.422 413.213 337.143Z" fill="#06033E"></path><path opacity="0.4" d="M308.445 288.461L301.609 284.556C301.051 284.277 301.191 283.719 301.749 283.3L308.445 279.394C309.142 278.976 309.979 278.976 310.537 279.255L317.373 283.161C317.931 283.44 317.792 283.998 317.234 284.416L310.537 288.322C309.979 288.74 309.003 288.74 308.445 288.461Z" fill="#06033E"></path><path opacity="0.4" d="M297.705 282.184L290.869 278.279C290.311 278 290.45 277.442 291.008 277.023L297.705 273.118C298.402 272.699 299.239 272.699 299.797 272.978L306.633 276.884C307.191 277.163 307.051 277.721 306.493 278.139L299.797 282.045C299.239 282.463 298.263 282.603 297.705 282.184Z" fill="#06033E"></path><path opacity="0.4" d="M286.962 276.047L280.127 272.141C279.569 271.862 279.708 271.304 280.266 270.886L286.962 266.98C287.66 266.562 288.497 266.562 289.055 266.841L295.891 270.746C296.449 271.025 296.309 271.583 295.751 272.002L289.055 275.907C288.358 276.326 287.52 276.326 286.962 276.047Z" fill="#06033E"></path><path opacity="0.4" d="M276.22 269.77L269.385 265.864C268.827 265.585 268.966 265.027 269.524 264.609L276.22 260.703C276.918 260.285 277.755 260.285 278.313 260.564L285.149 264.469C285.707 264.748 285.567 265.306 285.009 265.725L278.313 269.63C277.615 270.049 276.639 270.188 276.22 269.77Z" fill="#06033E"></path><path opacity="0.4" d="M318.908 294.459L312.072 290.554C311.514 290.275 311.654 289.717 312.212 289.298L318.908 285.393C319.605 284.974 320.442 284.974 321 285.253L327.836 289.159C328.394 289.438 328.255 289.996 327.697 290.414L321 294.32C320.442 294.738 319.466 294.878 318.908 294.459Z" fill="#06033E"></path><path opacity="0.4" d="M329.511 300.597L322.676 296.691C322.118 296.412 322.257 295.854 322.815 295.436L329.511 291.53C330.209 291.112 331.046 291.111 331.604 291.39L338.44 295.296C338.998 295.575 338.858 296.133 338.3 296.552L331.604 300.457C330.906 300.876 330.069 300.876 329.511 300.597Z" fill="#06033E"></path><path opacity="0.4" d="M339.974 306.595L333.138 302.689C332.58 302.41 332.72 301.852 333.278 301.434L339.974 297.528C340.672 297.11 341.509 297.11 342.067 297.389L348.902 301.294C349.461 301.573 349.321 302.131 348.763 302.55L342.067 306.455C341.509 306.874 340.532 307.013 339.974 306.595Z" fill="#06033E"></path><path opacity="0.4" d="M350.437 312.732L343.601 308.827C343.043 308.548 343.183 307.99 343.741 307.571L350.437 303.665C351.135 303.247 351.972 303.247 352.53 303.526L359.365 307.432C359.923 307.711 359.784 308.269 359.226 308.687L352.53 312.593C351.972 313.011 350.995 313.011 350.437 312.732Z" fill="#06033E"></path><path opacity="0.4" d="M361.039 318.73L354.203 314.825C353.645 314.546 353.784 313.988 354.342 313.569L361.039 309.664C361.736 309.245 362.573 309.245 363.131 309.524L369.967 313.43C370.525 313.709 370.385 314.267 369.827 314.685L363.131 318.591C362.434 319.009 361.457 319.149 361.039 318.73Z" fill="#06033E"></path><path opacity="0.4" d="M371.502 324.868L364.666 320.962C364.108 320.683 364.247 320.125 364.805 319.707L371.502 315.801C372.199 315.382 373.036 315.382 373.594 315.661L380.43 319.567C380.988 319.846 380.848 320.404 380.29 320.823L373.594 324.728C373.036 325.147 372.06 325.147 371.502 324.868Z" fill="#06033E"></path><path opacity="0.4" d="M381.964 330.866L375.129 326.96C374.571 326.681 374.71 326.123 375.268 325.705L381.964 321.799C382.662 321.381 383.499 321.381 384.057 321.66L390.893 325.565C391.451 325.844 391.311 326.402 390.753 326.821L384.057 330.726C383.499 331.145 382.522 331.284 381.964 330.866Z" fill="#06033E"></path><path opacity="0.4" d="M392.427 337.003L385.592 333.098C385.034 332.819 385.173 332.261 385.731 331.842L392.427 327.936C393.125 327.518 393.962 327.518 394.52 327.797L401.356 331.703C401.914 331.982 401.774 332.54 401.216 332.958L394.52 336.864C393.962 337.282 392.985 337.282 392.427 337.003Z" fill="#06033E"></path><path opacity="0.4" d="M403.031 343.001L396.195 339.096C395.637 338.817 395.777 338.259 396.335 337.84L403.031 333.934C403.728 333.516 404.565 333.516 405.123 333.795L411.959 337.701C412.517 337.98 412.378 338.538 411.82 338.956L405.123 342.862C404.565 343.28 403.589 343.28 403.031 343.001Z" fill="#06033E"></path><path opacity="0.4" d="M302.865 273.396L296.029 269.491C295.471 269.212 295.611 268.654 296.169 268.235L302.865 264.33C303.562 263.911 304.399 263.911 304.957 264.19L311.793 268.096C312.351 268.375 312.212 268.933 311.654 269.351L304.957 273.257C304.399 273.675 303.423 273.815 302.865 273.396Z" fill="#06033E"></path><path opacity="0.4" d="M292.402 267.398L285.566 263.493C285.008 263.214 285.148 262.656 285.706 262.237L292.402 258.332C293.099 257.913 293.936 257.913 294.495 258.192L301.33 262.098C301.888 262.377 301.749 262.935 301.191 263.353L294.495 267.259C293.936 267.677 292.96 267.677 292.402 267.398Z" fill="#06033E"></path><path opacity="0.4" d="M282.08 261.401L275.244 257.495C274.686 257.216 274.825 256.658 275.383 256.24L282.08 252.334C282.777 251.915 283.614 251.915 284.172 252.194L291.008 256.1C291.566 256.379 291.426 256.937 290.868 257.355L284.172 261.261C283.475 261.68 282.498 261.68 282.08 261.401Z" fill="#06033E"></path><path opacity="0.4" d="M271.617 255.403L264.781 251.497C264.223 251.218 264.362 250.66 264.921 250.242L271.617 246.336C272.314 245.917 273.151 245.917 273.709 246.196L280.545 250.102C281.103 250.381 280.964 250.939 280.406 251.357L273.709 255.263C273.012 255.682 272.175 255.682 271.617 255.403Z" fill="#06033E"></path><path opacity="0.4" d="M282.359 249.126L275.523 245.22C274.965 244.941 275.105 244.383 275.663 243.965L277.895 242.709C278.592 242.291 279.429 242.291 279.987 242.57L286.823 246.475C287.381 246.754 287.242 247.312 286.684 247.731L284.451 248.986C283.754 249.405 282.917 249.405 282.359 249.126Z" fill="#06033E"></path><path opacity="0.4" d="M295.89 257.077L289.054 253.171C288.496 252.892 288.636 252.334 289.194 251.915L291.426 250.66C292.124 250.242 292.961 250.242 293.519 250.521L300.354 254.426C300.912 254.705 300.773 255.263 300.215 255.682L297.983 256.937C297.425 257.356 296.448 257.356 295.89 257.077Z" fill="#06033E"></path><path opacity="0.4" d="M306.353 263.074L299.517 259.169C298.959 258.89 299.099 258.332 299.657 257.913L301.889 256.658C302.586 256.239 303.423 256.239 303.981 256.518L310.817 260.424C311.375 260.703 311.236 261.261 310.678 261.679L308.446 262.935C307.888 263.353 306.911 263.353 306.353 263.074Z" fill="#06033E"></path><path opacity="0.4" d="M316.816 269.072L309.98 265.167C309.422 264.888 309.562 264.33 310.12 263.911L312.352 262.656C313.049 262.237 313.886 262.237 314.444 262.516L321.28 266.422C321.838 266.701 321.699 267.259 321.141 267.678L318.908 268.933C318.211 269.351 317.374 269.351 316.816 269.072Z" fill="#06033E"></path><path opacity="0.4" d="M327.14 275.07L320.304 271.165C319.746 270.886 319.886 270.328 320.444 269.909L322.676 268.654C323.374 268.236 324.211 268.236 324.769 268.514L331.604 272.42C332.162 272.699 332.023 273.257 331.465 273.676L329.233 274.931C328.675 275.349 327.698 275.349 327.14 275.07Z" fill="#06033E"></path><path opacity="0.4" d="M385.312 308.547L378.476 304.642C377.918 304.363 378.058 303.805 378.616 303.386L380.848 302.131C381.545 301.713 382.382 301.713 382.941 301.992L389.776 305.897C390.334 306.176 390.195 306.734 389.637 307.153L387.405 308.408C386.847 308.826 385.87 308.966 385.312 308.547Z" fill="#06033E"></path><path opacity="0.4" d="M395.636 314.546L388.801 310.64C388.243 310.361 388.382 309.803 388.94 309.384L391.172 308.129C391.87 307.711 392.707 307.711 393.265 307.99L400.1 311.895C400.658 312.174 400.519 312.732 399.961 313.151L397.729 314.406C397.171 314.824 396.194 314.964 395.636 314.546Z" fill="#06033E"></path><path opacity="0.4" d="M406.099 320.683L399.263 316.777C398.705 316.498 398.845 315.94 399.403 315.522L401.635 314.267C402.333 313.848 403.17 313.848 403.728 314.127L410.563 318.033C411.121 318.312 410.982 318.87 410.424 319.288L408.192 320.544C407.634 320.822 406.657 320.962 406.099 320.683Z" fill="#06033E"></path><path opacity="0.4" d="M416.562 326.681L409.726 322.775C409.168 322.496 409.308 321.938 409.866 321.52L412.098 320.265C412.795 319.846 413.632 319.846 414.19 320.125L421.026 324.031C421.584 324.31 421.445 324.868 420.887 325.286L418.655 326.542C417.957 326.96 417.12 326.96 416.562 326.681Z" fill="#06033E"></path><path opacity="0.4" d="M313.468 279.534L306.633 275.628C306.075 275.349 306.214 274.791 306.772 274.373L313.468 270.467C314.166 270.049 315.003 270.049 315.561 270.328L322.397 274.233C322.955 274.512 322.815 275.07 322.257 275.489L315.561 279.394C314.863 279.813 314.026 279.813 313.468 279.534Z" fill="#06033E"></path><path opacity="0.4" d="M323.931 285.532L317.095 281.626C316.537 281.347 316.677 280.789 317.235 280.371L323.931 276.465C324.629 276.047 325.466 276.047 326.024 276.326L332.86 280.231C333.418 280.51 333.278 281.068 332.72 281.487L326.024 285.393C325.466 285.811 324.489 285.95 323.931 285.532Z" fill="#06033E"></path><path opacity="0.4" d="M334.394 291.669L327.558 287.764C327 287.485 327.14 286.927 327.698 286.508L334.394 282.603C335.092 282.184 335.929 282.184 336.487 282.463L343.322 286.369C343.88 286.648 343.741 287.206 343.183 287.624L336.487 291.53C335.929 291.948 334.952 291.948 334.394 291.669Z" fill="#06033E"></path><path opacity="0.4" d="M344.996 297.667L338.16 293.762C337.602 293.483 337.741 292.925 338.299 292.506L344.996 288.601C345.693 288.182 346.53 288.182 347.088 288.461L353.924 292.367C354.482 292.646 354.342 293.204 353.784 293.622L347.088 297.528C346.391 297.946 345.554 298.086 344.996 297.667Z" fill="#06033E"></path><path opacity="0.4" d="M355.459 303.805L348.623 299.899C348.065 299.62 348.204 299.062 348.762 298.644L355.459 294.738C356.156 294.32 356.993 294.32 357.551 294.599L364.387 298.504C364.945 298.783 364.805 299.341 364.247 299.76L357.551 303.665C356.993 304.084 356.017 304.084 355.459 303.805Z" fill="#06033E"></path><path opacity="0.4" d="M365.921 309.803L359.086 305.897C358.528 305.618 358.667 305.06 359.225 304.642L365.921 300.736C366.619 300.318 367.456 300.318 368.014 300.597L374.85 304.502C375.408 304.781 375.268 305.339 374.71 305.758L368.014 309.663C367.456 310.082 366.479 310.221 365.921 309.803Z" fill="#06033E"></path><path opacity="0.4" d="M376.525 315.94L369.689 312.035C369.131 311.756 369.271 311.198 369.829 310.779L376.525 306.874C377.222 306.455 378.059 306.455 378.618 306.734L385.453 310.64C386.011 310.919 385.872 311.477 385.314 311.895L378.618 315.801C377.92 316.219 376.943 316.219 376.525 315.94Z" fill="#06033E"></path><path opacity="0.4" d="M386.988 321.939L380.152 318.033C379.594 317.754 379.734 317.196 380.292 316.777L386.988 312.872C387.685 312.453 388.522 312.453 389.08 312.732L395.916 316.638C396.474 316.917 396.335 317.475 395.777 317.893L389.08 321.799C388.522 322.217 387.546 322.217 386.988 321.939Z" fill="#06033E"></path><path opacity="0.4" d="M397.449 328.076L390.613 324.17C390.055 323.891 390.195 323.333 390.753 322.915L397.449 319.009C398.146 318.591 398.983 318.591 399.541 318.87L406.377 322.775C406.935 323.054 406.796 323.612 406.238 324.031L399.541 327.936C398.983 328.355 398.007 328.355 397.449 328.076Z" fill="#06033E"></path><path opacity="0.4" d="M253.34 280.231L233.252 268.654C232.694 268.375 232.833 267.817 233.391 267.399L240.087 263.493C240.785 263.074 241.622 263.074 242.18 263.353L262.269 274.931C262.827 275.21 262.687 275.768 262.129 276.186L255.433 280.092C254.875 280.51 253.898 280.65 253.34 280.231Z" fill="#06033E"></path><path opacity="0.4" d="M382.383 354.718L362.295 343.14C361.737 342.862 361.876 342.304 362.434 341.885L369.13 337.979C369.828 337.561 370.665 337.561 371.223 337.84L391.312 349.417C391.87 349.696 391.73 350.254 391.172 350.673L384.476 354.579C383.918 354.997 382.941 355.136 382.383 354.718Z" fill="#06033E"></path><path opacity="0.4" d="M340.392 343.977L333.556 340.072C332.998 339.793 333.138 339.235 333.696 338.816L341.787 334.213C342.485 333.795 343.322 333.795 343.88 334.074L350.715 337.979C351.274 338.258 351.134 338.816 350.576 339.235L342.485 343.838C341.927 344.256 340.95 344.256 340.392 343.977Z" fill="#06033E"></path><path opacity="0.4" d="M264.082 299.899L253.201 293.622C252.643 293.343 252.782 292.785 253.34 292.367L261.432 287.764C262.129 287.345 262.966 287.345 263.524 287.624L274.406 293.901C274.964 294.18 274.824 294.738 274.266 295.157L266.175 299.76C265.617 300.178 264.64 300.178 264.082 299.899Z" fill="#06033E"></path><path opacity="0.4" d="M330.348 338.119L319.467 331.842C318.909 331.563 319.048 331.005 319.606 330.587L327.697 325.984C328.395 325.565 329.232 325.565 329.79 325.844L340.671 332.121C341.229 332.4 341.09 332.958 340.532 333.376L332.441 337.98C331.743 338.398 330.766 338.398 330.348 338.119Z" fill="#06033E"></path><path opacity="0.4" d="M279.289 308.687L268.408 302.41C267.85 302.131 267.989 301.573 268.547 301.155L276.639 296.551C277.336 296.133 278.173 296.133 278.731 296.412L289.613 302.689C290.171 302.968 290.031 303.526 289.473 303.944L281.382 308.547C280.824 308.966 279.847 308.966 279.289 308.687Z" fill="#06033E"></path><path opacity="0.4" d="M278.732 296.412L326.024 323.752C326.582 324.031 326.582 324.589 326.024 325.007L317.793 329.75C317.235 330.029 316.258 330.029 315.7 329.75L268.408 302.41L278.732 296.412Z" fill="#06033E"></path><path opacity="0.4" d="M369.828 354.857L377.361 359.182C377.78 359.461 377.78 359.879 377.222 360.158L373.874 362.111C373.316 362.39 372.618 362.39 372.06 362.25L364.527 357.926C364.108 357.647 364.108 357.229 364.666 356.95L368.014 354.997C368.572 354.718 369.27 354.718 369.828 354.857Z" fill="#06033E"></path><path opacity="0.4" d="M359.224 348.86L366.758 353.184C367.176 353.463 367.176 353.881 366.618 354.16L363.27 356.113C362.712 356.392 362.015 356.392 361.457 356.253L353.923 351.928C353.505 351.649 353.505 351.231 354.063 350.952L357.411 348.999C357.969 348.581 358.666 348.581 359.224 348.86Z" fill="#06033E"></path><path opacity="0.4" d="M348.623 342.722L356.156 347.046C356.575 347.325 356.575 347.744 356.017 348.023L352.669 349.975C352.111 350.254 351.413 350.254 350.855 350.115L343.322 345.791C342.903 345.512 342.903 345.093 343.461 344.814L346.809 342.862C347.507 342.443 348.204 342.443 348.623 342.722Z" fill="#06033E"></path><path opacity="0.4" d="M364.945 345.512L372.479 349.836C372.897 350.115 372.897 350.533 372.339 350.812L368.991 352.765C368.433 353.044 367.735 353.044 367.177 352.905L359.644 348.581C359.226 348.302 359.226 347.883 359.784 347.604L363.132 345.651C363.69 345.233 364.527 345.233 364.945 345.512Z" fill="#06033E"></path></g><path d="M476.131 333.237L275.384 217.322C272.175 215.509 270.641 211.045 271.757 207.419L317.096 60.1193C318.212 56.4926 321.699 54.9582 324.908 56.7715L525.656 172.686C528.864 174.499 530.399 178.963 529.283 182.59L483.944 329.889C482.828 333.516 479.34 335.05 476.131 333.237Z" fill="url(#paint7_radial)"></path><path d="M474.318 328.076L279.709 215.649C276.64 213.975 275.105 209.651 276.221 206.163L319.607 65.2804C320.723 61.7932 324.071 60.3983 327.001 62.0722L521.61 174.5C524.679 176.173 526.214 180.498 525.098 183.985L481.712 324.868C480.596 328.355 477.247 329.75 474.318 328.076Z" fill="url(#paint8_linear)"></path><path opacity="0.4" d="M474.318 328.076L279.709 215.649C276.64 213.975 275.105 209.651 276.221 206.163L319.607 65.2804C320.723 61.7932 324.071 60.3983 327.001 62.0722L521.61 174.5C524.679 176.173 526.214 180.498 525.098 183.985L481.712 324.868C480.596 328.355 477.247 329.75 474.318 328.076Z" fill="#06033E"></path><path opacity="0.4" d="M474.318 328.076L279.709 215.649C276.64 213.975 275.105 209.651 276.221 206.163L319.607 65.2804C320.723 61.7932 324.071 60.3983 327.001 62.0722L521.61 174.5C524.679 176.173 526.214 180.498 525.098 183.985L481.712 324.868C480.596 328.355 477.247 329.75 474.318 328.076Z" fill="#06033E"></path><path opacity="0.5" d="M463.854 284.974L332.022 208.953C329.93 207.698 328.814 204.908 329.651 202.397L359.505 105.593C360.202 103.221 362.574 102.245 364.527 103.361L496.359 179.382C498.451 180.637 499.568 183.427 498.731 185.938L468.876 282.742C468.179 285.253 465.947 286.23 463.854 284.974Z" fill="#06033E"></path><path d="M445.997 287.345L314.165 211.324C312.072 210.069 310.956 207.279 311.793 204.768L341.647 107.964C342.345 105.592 344.716 104.616 346.669 105.732L478.502 181.753C480.594 183.008 481.71 185.798 480.873 188.309L451.019 285.113C450.322 287.485 448.09 288.461 445.997 287.345Z" fill="url(#paint9_radial)"></path><g opacity="0.5"><path opacity="0.5" d="M445.997 287.345L314.165 211.324C312.072 210.069 310.956 207.279 311.793 204.768L341.647 107.964C342.345 105.592 344.716 104.616 346.669 105.732L478.502 181.753C480.594 183.008 481.71 185.798 480.873 188.309L451.019 285.113C450.322 287.485 448.09 288.461 445.997 287.345Z" fill="#06033E"></path></g><path d="M478.503 181.892L346.671 105.871C345.415 105.174 344.02 105.174 342.904 106.011C343.462 106.011 344.16 106.15 344.857 106.429L476.69 182.45C478.782 183.706 479.898 186.495 479.061 189.006L449.207 285.811C448.928 286.648 448.51 287.345 447.812 287.903C449.207 287.903 450.463 286.927 451.021 285.253L480.875 188.448C481.572 185.937 480.596 183.008 478.503 181.892Z" fill="white"></path><path opacity="0.4" d="M279.848 366.295C278.034 366.295 276.36 365.877 274.965 365.18L222.232 334.771C220.837 333.934 220 332.818 220 331.563C220 330.029 221.116 328.634 222.93 327.518L250.133 311.895C253.481 309.942 258.364 309.803 261.293 311.477L313.887 341.746C315.282 342.583 316.119 343.698 316.119 344.954C316.119 346.488 315.003 347.883 313.189 348.999L285.986 364.761C284.172 365.738 281.94 366.295 279.848 366.295ZM256.271 311.616C254.318 311.616 252.365 312.035 250.831 313.011L223.627 328.634C222.232 329.471 221.535 330.447 221.535 331.284C221.535 332.26 222.232 332.818 222.93 333.237L275.662 363.785C278.034 365.18 282.498 365.04 285.288 363.366L312.492 347.744C313.887 346.907 314.584 345.93 314.584 345.093C314.584 344.117 313.887 343.559 313.189 343.14L260.456 312.732C259.34 312.035 257.806 311.616 256.271 311.616Z" fill="#06033E"></path><path d="M378.756 156.506L370.665 151.763C369.967 151.345 369.549 150.229 369.828 149.392C370.107 148.555 370.944 148.136 371.641 148.694L379.732 153.437C380.43 153.855 380.849 154.971 380.569 155.808C380.43 156.645 379.593 156.924 378.756 156.506Z" fill="white"></path><path d="M398.148 167.804L386.151 160.83C385.453 160.411 385.035 159.295 385.314 158.459C385.593 157.622 386.43 157.203 387.128 157.761L399.125 164.736C399.822 165.154 400.241 166.27 399.962 167.107C399.822 167.804 398.985 168.223 398.148 167.804Z" fill="white"></path><path d="M362.434 192.773L354.342 188.03C353.645 187.612 353.226 186.496 353.505 185.659C353.784 184.822 354.621 184.403 355.319 184.961L363.41 189.704C364.108 190.122 364.526 191.238 364.247 192.075C363.968 192.912 363.131 193.191 362.434 192.773Z" fill="white"></path><path d="M379.732 202.816L367.735 195.841C367.037 195.423 366.619 194.307 366.898 193.47C367.177 192.633 368.014 192.215 368.711 192.773L380.709 199.747C381.406 200.165 381.825 201.281 381.546 202.118C381.267 202.955 380.43 203.234 379.732 202.816Z" fill="white"></path><path d="M354.343 150.089L349.321 147.16C348.623 146.741 348.205 145.626 348.484 144.789C348.763 143.952 349.6 143.533 350.297 144.091L355.32 147.02C356.017 147.439 356.436 148.555 356.157 149.392C356.017 150.229 355.18 150.508 354.343 150.089Z" fill="white"></path><path d="M369.689 166.549L354.204 157.622C353.506 157.203 353.088 156.087 353.367 155.25C353.646 154.413 354.483 153.995 355.18 154.553L370.665 163.48C371.363 163.899 371.781 165.014 371.502 165.851C371.223 166.688 370.526 166.967 369.689 166.549Z" fill="white"></path><path d="M355.32 173.523L350.297 170.594C349.6 170.176 349.181 169.06 349.46 168.223C349.739 167.386 350.576 166.967 351.274 167.525L356.296 170.455C356.994 170.873 357.412 171.989 357.133 172.826C356.994 173.663 356.157 173.942 355.32 173.523Z" fill="white"></path><path d="M381.546 219.136L368.014 211.324C367.317 210.906 366.898 209.79 367.177 208.953C367.456 208.116 368.293 207.698 368.991 208.256L382.523 216.067C383.22 216.486 383.639 217.601 383.36 218.438C383.081 219.275 382.244 219.554 381.546 219.136Z" fill="white"></path><path d="M349.6 185.519L346.391 183.566C345.694 183.148 345.275 182.032 345.554 181.195C345.833 180.358 346.67 179.94 347.368 180.497L350.576 182.45C351.274 182.869 351.692 183.985 351.413 184.822C351.274 185.519 350.437 185.938 349.6 185.519Z" fill="white"></path><path d="M346.531 198.91L342.485 196.539C341.787 196.12 341.369 195.004 341.648 194.167C341.927 193.33 342.764 192.912 343.462 193.47L347.507 195.841C348.205 196.26 348.623 197.376 348.344 198.212C348.205 199.049 347.368 199.328 346.531 198.91Z" fill="white"></path><path d="M362.295 208.116L351.553 201.979C350.856 201.56 350.437 200.444 350.716 199.607C350.995 198.771 351.832 198.352 352.53 198.91L363.272 205.048C363.969 205.466 364.388 206.582 364.109 207.419C363.969 208.116 363.132 208.535 362.295 208.116Z" fill="white"></path><path d="M348.205 207.558L340.532 203.095C339.834 202.676 339.416 201.56 339.695 200.723C339.974 199.886 340.811 199.468 341.508 200.026L349.181 204.489C349.879 204.908 350.297 206.024 350.018 206.861C349.879 207.698 349.042 207.977 348.205 207.558Z" fill="white"></path><path d="M393.264 225.971L388.381 223.181C387.684 222.762 387.265 221.647 387.544 220.81C387.823 219.973 388.66 219.554 389.358 220.112L394.241 222.902C394.938 223.32 395.357 224.436 395.078 225.273C394.799 225.971 393.962 226.389 393.264 225.971Z" fill="white"></path><path d="M374.292 184.403L360.76 176.592C360.063 176.173 359.644 175.057 359.923 174.221C360.202 173.384 361.039 172.965 361.737 173.523L375.269 181.334C375.966 181.753 376.385 182.869 376.106 183.706C375.827 184.543 374.99 184.961 374.292 184.403Z" fill="white"></path><path d="M375.966 177.708L352.251 164.038C351.553 163.62 351.135 162.504 351.414 161.667C351.693 160.83 352.53 160.411 353.227 160.969L376.943 174.639C377.64 175.058 378.059 176.174 377.78 177.011C377.501 177.847 376.664 178.266 375.966 177.708Z" fill="#E8975B"></path><path d="M361.876 184.961L348.344 177.15C347.647 176.731 347.228 175.616 347.507 174.779C347.786 173.942 348.623 173.523 349.321 174.081L362.853 181.893C363.55 182.311 363.969 183.427 363.69 184.264C363.55 185.101 362.713 185.38 361.876 184.961Z" fill="#E8975B"></path><path d="M384.616 190.401L379.733 187.612C379.036 187.193 378.617 186.077 378.896 185.24C379.175 184.403 380.012 183.985 380.71 184.543L385.592 187.333C386.29 187.751 386.708 188.867 386.429 189.704C386.15 190.541 385.313 190.82 384.616 190.401Z" fill="#E8975B"></path><path d="M434.838 188.867L405.542 171.989C404.844 171.57 404.426 170.454 404.705 169.618C404.984 168.781 405.821 168.362 406.518 168.92L435.814 185.798C436.512 186.217 436.93 187.332 436.651 188.169C436.372 189.006 435.535 189.285 434.838 188.867Z" fill="#E8975B"></path><path d="M360.76 199.608L344.438 190.122C343.741 189.704 343.322 188.588 343.601 187.751C343.88 186.914 344.717 186.496 345.415 187.054L361.737 196.539C362.434 196.957 362.853 198.073 362.574 198.91C362.434 199.608 361.597 200.026 360.76 199.608Z" fill="#FBAD78"></path><path d="M363.271 147.578L351.274 140.604C350.577 140.186 350.158 139.07 350.437 138.233C350.716 137.396 351.553 136.977 352.251 137.535L364.248 144.51C364.946 144.928 365.364 146.044 365.085 146.881C364.806 147.718 363.969 147.997 363.271 147.578Z" fill="#FBAD78"></path><path d="M345.693 213.696L331.743 205.606C331.045 205.187 330.627 204.071 330.906 203.234C331.185 202.397 332.022 201.979 332.719 202.537L346.67 210.627C347.367 211.046 347.786 212.161 347.507 212.998C347.367 213.835 346.53 214.114 345.693 213.696Z" fill="#E8975B"></path><path d="M438.185 173.802L432.186 170.315C431.628 170.036 431.349 169.199 431.489 168.641C431.628 168.083 432.326 167.804 432.884 168.083L438.882 171.57C439.44 171.849 439.719 172.686 439.58 173.244C439.301 173.942 438.743 174.221 438.185 173.802Z" fill="white"></path><path d="M449.486 180.358L443.487 176.871C442.929 176.592 442.65 175.755 442.789 175.197C442.929 174.639 443.626 174.36 444.184 174.639L450.183 178.126C450.741 178.405 451.02 179.242 450.881 179.8C450.602 180.497 450.044 180.776 449.486 180.358Z" fill="white"></path><path d="M460.784 187.054L454.786 183.566C454.228 183.287 453.949 182.45 454.088 181.892C454.228 181.335 454.925 181.056 455.483 181.335L461.482 184.822C462.04 185.101 462.319 185.938 462.18 186.496C462.04 187.054 461.342 187.333 460.784 187.054Z" fill="white"></path><path d="M466.365 190.262L466.225 190.122C465.667 189.843 465.388 189.006 465.528 188.448C465.667 187.89 466.365 187.611 466.923 187.89L467.062 188.03C467.62 188.309 467.899 189.146 467.76 189.704C467.62 190.262 466.923 190.541 466.365 190.262Z" fill="#F8359E"></path><path d="M159.035 259.866C155.268 259.866 151.501 258.89 148.153 256.937L108.255 233.921C106.581 232.945 105.465 231.132 105.465 229.179C105.465 227.226 106.441 225.413 108.255 224.436L148.153 201.421C154.85 197.515 163.22 197.515 169.916 201.421L209.814 224.436C211.489 225.413 212.605 227.226 212.605 229.179C212.605 231.132 211.628 232.945 209.814 233.921L169.916 256.937C166.568 258.89 162.801 259.866 159.035 259.866ZM149.409 254.705C155.268 258.192 162.662 258.192 168.661 254.705L208.559 231.69C209.535 231.132 209.954 230.155 209.954 229.179C209.954 228.202 209.396 227.226 208.559 226.668L168.661 203.653C162.801 200.165 155.408 200.165 149.409 203.653L109.51 226.668C108.534 227.226 108.115 228.202 108.115 229.179C108.115 230.295 108.673 231.132 109.51 231.69L149.409 254.705Z" fill="url(#paint10_linear)"></path><path opacity="0.6" d="M158.896 245.499C173.997 245.499 186.239 238.442 186.239 229.737C186.239 221.032 173.997 213.975 158.896 213.975C143.795 213.975 131.553 221.032 131.553 229.737C131.553 238.442 143.795 245.499 158.896 245.499Z" fill="#020230"></path><path d="M199.491 117.031H121.508L128.762 201.56C128.762 206.303 131.831 210.906 138.109 214.533C150.525 221.647 170.614 221.647 183.029 214.533C189.168 210.906 192.376 206.303 192.376 201.56L199.491 117.031Z" fill="url(#paint11_radial)"></path><path opacity="0.4" d="M199.491 117.031H121.508L122.763 130.979C124.577 133.211 126.948 135.443 130.018 137.535C144.945 147.439 169.497 149.392 186.378 142.278L183.727 204.071C183.587 206.721 182.75 209.372 180.937 211.464C178.426 214.393 173.543 217.88 164.196 219.973C171.032 219.554 177.728 217.741 183.029 214.672C189.168 211.045 192.376 206.442 192.376 201.7L198.235 133.909L199.491 117.031Z" fill="#06033E"></path><path opacity="0.4" d="M160.43 139.488C182.003 139.488 199.492 129.434 199.492 117.031C199.492 104.628 182.003 94.573 160.43 94.573C138.858 94.573 121.369 104.628 121.369 117.031C121.369 129.434 138.858 139.488 160.43 139.488Z" fill="#06033E"></path><path opacity="0.4" d="M160.431 128.469C178.999 128.469 194.052 119.788 194.052 109.08C194.052 98.3716 178.999 89.6909 160.431 89.6909C141.863 89.6909 126.811 98.3716 126.811 109.08C126.811 119.788 141.863 128.469 160.431 128.469Z" fill="#06033E"></path><path d="M201.864 115.915C201.864 115.776 201.864 115.776 201.864 115.776L201.166 108.244V108.383C200.887 102.664 196.841 96.9451 189.308 92.621C173.405 83.4148 147.736 83.4148 131.972 92.621C124.159 97.0846 120.253 102.943 120.114 108.802L119.416 115.497C119.416 115.636 119.416 115.915 119.416 116.055V116.194C118.998 122.611 123.043 129.167 131.553 134.049C147.736 143.395 173.963 143.395 190.006 134.049C198.236 128.888 202.282 122.332 201.864 115.915Z" fill="url(#paint12_linear)"></path><path d="M160.431 128.469C178.999 128.469 194.052 119.788 194.052 109.08C194.052 98.3716 178.999 89.6909 160.431 89.6909C141.863 89.6909 126.811 98.3716 126.811 109.08C126.811 119.788 141.863 128.469 160.431 128.469Z" fill="url(#paint13_linear)"></path><path d="M158.896 128.469C177.464 128.469 192.517 119.788 192.517 109.08C192.517 98.3716 177.464 89.6909 158.896 89.6909C140.328 89.6909 125.275 98.3716 125.275 109.08C125.275 119.788 140.328 128.469 158.896 128.469Z" fill="url(#paint14_linear)"></path><path opacity="0.4" d="M140.761 98.1996C153.874 90.6673 175.218 90.6673 188.332 98.1996C188.471 98.3391 188.611 98.3391 188.75 98.4786C187.495 97.3627 185.96 96.2468 184.286 95.2704C171.173 87.738 149.829 87.738 136.715 95.2704C123.741 102.803 123.602 114.799 136.297 122.471C127.787 114.938 129.321 104.756 140.761 98.1996Z" fill="#06033E"></path><path d="M136.715 98.6181C149.829 91.0857 171.173 91.0857 184.287 98.6181C190.146 101.966 193.354 106.29 194.052 110.614C194.889 105.035 191.68 99.455 184.287 95.2704C171.173 87.738 149.829 87.738 136.715 95.2704C129.461 99.455 126.113 105.174 126.95 110.614C127.648 106.29 130.856 102.105 136.715 98.6181Z" fill="url(#paint15_linear)"></path><path d="M189.449 92.6202C173.684 83.2745 147.876 83.135 131.833 92.0622C115.79 100.989 115.79 116.054 131.554 125.26C147.318 134.606 173.126 134.746 189.17 125.818C205.073 116.891 205.213 101.966 189.449 92.6202ZM184.287 122.75C179.962 125.26 174.661 126.934 168.941 127.771L168.383 125.818C168.104 124.981 167.407 124.423 166.57 124.423H154.433C153.596 124.423 152.898 124.981 152.619 125.818L152.061 127.771C146.481 126.934 141.18 125.26 136.716 122.75C123.602 115.217 123.602 102.942 136.716 95.2704C149.829 87.7381 171.173 87.7381 184.287 95.2704C197.4 102.942 197.4 115.217 184.287 122.75Z" fill="url(#paint16_radial)"></path><path d="M184.285 93.8756C171.172 86.3432 149.828 86.3432 136.714 93.8756C129.879 97.7812 126.53 103.082 126.949 108.243C127.228 103.5 130.576 98.8972 136.714 95.2705C149.828 87.7381 171.172 87.7381 184.285 95.2705C190.563 98.8972 193.772 103.5 194.051 108.243C194.33 103.082 191.121 97.9207 184.285 93.8756Z" fill="white"></path><path d="M189.168 124.423C173.125 133.49 147.456 133.211 131.553 123.866C124.019 119.402 120.113 113.683 119.834 107.964C119.555 114.101 123.461 120.518 131.553 125.26C147.317 134.606 173.125 134.746 189.168 125.818C197.538 121.076 201.584 114.799 201.166 108.382C200.887 114.38 196.841 120.099 189.168 124.423Z" fill="white"></path><path d="M164.057 128.887H156.803C156.245 128.887 155.826 128.469 155.826 127.911V127.771C155.826 127.213 156.245 126.795 156.803 126.795H164.057C164.615 126.795 165.034 127.213 165.034 127.771V127.911C165.034 128.469 164.615 128.887 164.057 128.887Z" fill="#0C0A78"></path><path d="M164.057 126.934H156.803C156.245 126.934 155.826 127.353 155.826 127.91V128.05C155.826 128.189 155.826 128.189 155.826 128.329C155.966 127.91 156.245 127.632 156.663 127.632H163.917C164.336 127.632 164.615 127.91 164.755 128.329C164.755 128.189 164.755 128.189 164.755 128.05V127.91C165.034 127.353 164.615 126.934 164.057 126.934Z" fill="url(#paint17_linear)"></path><path opacity="0.5" d="M163.08 127.911C163.08 127.911 184.843 120.657 176.054 95.5493C167.266 70.4415 149.967 62.7696 156.942 42.6833C156.942 42.6833 146.061 58.864 156.245 80.9031C166.429 102.803 168.661 100.292 168.521 110.893C168.382 123.307 158.337 127.911 158.337 127.911H163.08Z" fill="white"></path><path opacity="0.5" d="M165.034 46.1704C165.034 46.1704 162.801 31.1057 176.891 16.041C176.891 16.041 164.475 43.7991 168.521 57.6085C168.382 57.6085 165.173 48.8207 165.034 46.1704Z" fill="white"></path><defs><linearGradient id="paint0_linear" x1="576.564" y1="391.845" x2="622.059" y2="391.845" gradientUnits="userSpaceOnUse"><stop stop-color="#E39A65"></stop><stop offset="1" stop-color="#E95F8D"></stop></linearGradient><linearGradient id="paint1_linear" x1="514.273" y1="329.503" x2="590.691" y2="329.503" gradientUnits="userSpaceOnUse"><stop stop-color="#E39A65"></stop><stop offset="1" stop-color="#E95F8D"></stop></linearGradient><linearGradient id="paint2_linear" x1="10.3499" y1="355.102" x2="86.7683" y2="355.102" gradientUnits="userSpaceOnUse"><stop stop-color="#E39A65"></stop><stop offset="1" stop-color="#E95F8D"></stop></linearGradient><linearGradient id="paint3_linear" x1="99.3189" y1="350.201" x2="507.173" y2="350.201" gradientUnits="userSpaceOnUse"><stop stop-color="#E39A65"></stop><stop offset="1" stop-color="#E95F8D"></stop></linearGradient><radialGradient id="paint4_radial" cx="0" cy="0" r="1" gradientUnits="userSpaceOnUse" gradientTransform="translate(324.6 48.2729) scale(311.509 311.471)"><stop stop-color="#E39A65"></stop><stop offset="0.4742" stop-color="#A92FFB"></stop><stop offset="0.5947" stop-color="#891CFB"></stop><stop offset="0.7421" stop-color="#6507FA"></stop><stop offset="0.8016" stop-color="#0D0C6F"></stop></radialGradient><radialGradient id="paint5_radial" cx="0" cy="0" r="1" gradientUnits="userSpaceOnUse" gradientTransform="translate(134.075 298.407) scale(340.632 340.591)"><stop stop-color="#E39A65"></stop><stop offset="0.4742" stop-color="#A92FFB"></stop><stop offset="0.5679" stop-color="#891CFB"></stop><stop offset="0.6825" stop-color="#6507FA"></stop><stop offset="0.7381" stop-color="#0D0C6F"></stop></radialGradient><radialGradient id="paint6_radial" cx="0" cy="0" r="1" gradientUnits="userSpaceOnUse" gradientTransform="translate(165.404 230.045) scale(305.46 305.423)"><stop stop-color="#E39A65"></stop><stop offset="0.4742" stop-color="#A92FFB"></stop><stop offset="0.5875" stop-color="#891CFB"></stop><stop offset="0.7262" stop-color="#6507FA"></stop><stop offset="1" stop-color="#3919BB"></stop></radialGradient><radialGradient id="paint7_radial" cx="0" cy="0" r="1" gradientUnits="userSpaceOnUse" gradientTransform="translate(241.501 113.243) scale(311.571 311.534)"><stop stop-color="#E39A65"></stop><stop offset="0.4742" stop-color="#A92FFB"></stop><stop offset="0.5875" stop-color="#891CFB"></stop><stop offset="0.7262" stop-color="#6507FA"></stop><stop offset="1" stop-color="#3919BB"></stop></radialGradient><linearGradient id="paint8_linear" x1="275.746" y1="195.021" x2="525.413" y2="195.021" gradientUnits="userSpaceOnUse"><stop stop-color="#3919BB"></stop><stop offset="1" stop-color="#6507FA"></stop></linearGradient><radialGradient id="paint9_radial" cx="0" cy="0" r="1" gradientUnits="userSpaceOnUse" gradientTransform="translate(127.759 46.7163) scale(485.264 485.206)"><stop stop-color="#E39A65"></stop><stop offset="0.4742" stop-color="#EA7D34"></stop><stop offset="1" stop-color="#3919BB"></stop></radialGradient><linearGradient id="paint10_linear" x1="105.526" y1="229.17" x2="212.631" y2="229.17" gradientUnits="userSpaceOnUse"><stop stop-color="#E39A65"></stop><stop offset="1" stop-color="#E95F8D"></stop></linearGradient><radialGradient id="paint11_radial" cx="0" cy="0" r="1" gradientUnits="userSpaceOnUse" gradientTransform="translate(115.021 141.815) scale(230.67 230.642)"><stop stop-color="#E39A65"></stop><stop offset="0.1528" stop-color="#A92FFB"></stop><stop offset="0.4087" stop-color="#3919BB"></stop><stop offset="0.9311" stop-color="#3919BB"></stop></radialGradient><linearGradient id="paint12_linear" x1="119.104" y1="113.244" x2="201.844" y2="113.244" gradientUnits="userSpaceOnUse"><stop stop-color="#E39A65"></stop><stop offset="0.252" stop-color="#A92FFB"></stop><stop offset="0.5556" stop-color="#3919BB"></stop></linearGradient><linearGradient id="paint13_linear" x1="126.863" y1="109.039" x2="194.083" y2="109.039" gradientUnits="userSpaceOnUse"><stop stop-color="#4F1FEC"></stop><stop offset="1" stop-color="#A92FFB"></stop></linearGradient><linearGradient id="paint14_linear" x1="125.268" y1="109.039" x2="192.487" y2="109.039" gradientUnits="userSpaceOnUse"><stop stop-color="#4F1FEC"></stop><stop offset="1" stop-color="#A92FFB"></stop></linearGradient><linearGradient id="paint15_linear" x1="126.869" y1="100.18" x2="211.621" y2="100.18" gradientUnits="userSpaceOnUse"><stop stop-color="#131060"></stop><stop offset="0.1857" stop-color="#141062"></stop><stop offset="0.2823" stop-color="#19106A"></stop><stop offset="0.3584" stop-color="#221078"></stop><stop offset="0.4238" stop-color="#2E0F8B"></stop><stop offset="0.4823" stop-color="#3E0FA3"></stop><stop offset="0.5359" stop-color="#510EC2"></stop><stop offset="0.5847" stop-color="#680DE5"></stop><stop offset="0.6071" stop-color="#740DF8"></stop><stop offset="0.6179" stop-color="#7A14F0"></stop><stop offset="0.6826" stop-color="#9B3CC3"></stop><stop offset="0.7477" stop-color="#B75D9D"></stop><stop offset="0.8123" stop-color="#CC7680"></stop><stop offset="0.8762" stop-color="#DC886C"></stop><stop offset="0.9391" stop-color="#E5935F"></stop><stop offset="1" stop-color="#E8975B"></stop></linearGradient><radialGradient id="paint16_radial" cx="0" cy="0" r="1" gradientUnits="userSpaceOnUse" gradientTransform="translate(108.778 89.8367) scale(150.895 150.877)"><stop stop-color="#E39A65"></stop><stop offset="0.252" stop-color="#A92FFB"></stop><stop offset="0.7357" stop-color="#3919BB"></stop></radialGradient><linearGradient id="paint17_linear" x1="155.152" y1="127.53" x2="166.877" y2="127.53" gradientUnits="userSpaceOnUse"><stop stop-color="#131060"></stop><stop offset="0.1857" stop-color="#141062"></stop><stop offset="0.2823" stop-color="#19106A"></stop><stop offset="0.3584" stop-color="#221078"></stop><stop offset="0.4238" stop-color="#2E0F8B"></stop><stop offset="0.4823" stop-color="#3E0FA3"></stop><stop offset="0.5359" stop-color="#510EC2"></stop><stop offset="0.5847" stop-color="#680DE5"></stop><stop offset="0.6071" stop-color="#740DF8"></stop><stop offset="0.6179" stop-color="#7A14F0"></stop><stop offset="0.6826" stop-color="#9B3CC3"></stop><stop offset="0.7477" stop-color="#B75D9D"></stop><stop offset="0.8123" stop-color="#CC7680"></stop><stop offset="0.8762" stop-color="#DC886C"></stop><stop offset="0.9391" stop-color="#E5935F"></stop><stop offset="1" stop-color="#E8975B"></stop></linearGradient></defs></svg>